<svg id="Layer_1" data-name="Layer 1" xmlns="http://www.w3.org/2000/svg" xmlns:xlink="http://www.w3.org/1999/xlink" viewBox="0 0 458.51 458.51"><defs><style>.cls-1{fill:none;}.cls-2{clip-path:url(#clip-path);}.cls-3{fill:#fff;fill-rule:evenodd;}</style><clipPath id="clip-path" transform="translate(-22.93 -30.57)"><rect class="cls-1" width="512" height="512"/></clipPath></defs><title>icon-instagram-inverted</title><g class="cls-2"><path class="cls-3" d="M252.18,489.07c-126.61,0-229.25-102.63-229.25-229.25S125.57,30.57,252.18,30.57,481.43,133.2,481.43,259.82,378.79,489.07,252.18,489.07ZM345.45,376.4c1.21-.2,2.43-.38,3.63-.64a25.21,25.21,0,0,0,19.16-19.54c.19-1,.35-2.08.51-3.12V166.55c-.16-1-.3-2.05-.49-3.07a25.24,25.24,0,0,0-21.25-20c-.44-.05-.86-.15-1.3-.22H158.65c-1.12.2-2.26.35-3.37.61A25.14,25.14,0,0,0,135.83,165c-.06.44-.15.88-.22,1.31V353.36c.22,1.17.38,2.37.65,3.55a25.25,25.25,0,0,0,21.17,19.26c.49.06,1,.16,1.49.23ZM160.83,237.78v.63q0,51.75,0,103.51a9.43,9.43,0,0,0,9.26,9.23q82.08,0,164.14,0a9.42,9.42,0,0,0,9.28-9.26q0-51.69,0-103.38v-.72H321.26a72.93,72.93,0,0,1,2.87,30.67,71.31,71.31,0,0,1-10.05,29.07,72.48,72.48,0,0,1-97.24,25.56,70.73,70.73,0,0,1-28.16-28.37c-9.85-18.13-11.43-37.18-5.65-56.94Zm91.35-25.21a47.24,47.24,0,1,0,47.22,48.28A47.24,47.24,0,0,0,252.18,212.57ZM323,203.1v0c3.83,0,7.68.07,11.52,0a9.35,9.35,0,0,0,9-9.3V171.66a9.42,9.42,0,0,0-9.45-9.49H312a9.43,9.43,0,0,0-9.45,9.5c0,7.3,0,14.6,0,21.9a10.28,10.28,0,0,0,.56,3.25,9.41,9.41,0,0,0,9.23,6.29Z" transform="translate(-22.93 -30.57)"/></g></svg>