<svg xmlns="http://www.w3.org/2000/svg" viewBox="0 0 540 563.03">
  <title>Asset 3</title>
  <g id="Layer_2" data-name="Layer 2">
    <g id="Layer_1_Image" data-name="Layer 1 Image" style="opacity: 0.8">
      <g>
        <path d="M137.17,249.73c-13.53-5.23-24.64-13.87-35.06-24.21l4-2.4c26-15.77,47.3-36.24,62.45-62.72,9.45-16.52,15.07-34.11,12.54-53.53-3.08-23.56-19.69-37-43.22-33.93C116.6,75.73,97.26,84.41,80.43,97.23c-40.36,30.74-62.92,72-69,122.29-1.27,10.5,8.6,19.88,19.11,18.71,3.23-.37,3.89-1.92,3.75-5.07-.26-5.45-.58-11.1.49-16.38A219.09,219.09,0,0,1,84.42,115.64c3.33-3.85,7.29-7.15,11-10.71a1014.44,1014.44,0,0,0-31.74,114C56.34,214.72,52.9,208,49.17,201.74c-13.23,7.51-10.2,23.78,11.62,32.14-.13,1.23-.3,2.52-.43,3.81-1.08,11.6-2.58,23.19-3.12,34.82-.48,10.61,7,17.39,18.24,17.53.13-.92.28-1.87.4-2.83,1.94-16.35,3.93-32.7,5.79-49.06.36-3.17,1.43-5.82,4.88-5.63A9.56,9.56,0,0,1,92,235.37c9.84,9.66,18.81,20.35,29.43,29,13.11,10.72,28.68,15,45.94,12.23,6.62-1.07,10.26-4.24,11.2-10.65.67-4.6,1.19-9.23,1.55-13.86.11-1.49-.5-3-.9-5.2C165.18,255.14,151.32,255.2,137.17,249.73ZM91.94,215.29c-1.55.83-3.21,1.45-6.24,2.82,3.51-12.86,6-24.58,9.92-35.78,7.91-22.42,16.51-44.61,25.12-66.78,2-5.07.36-8.61-3.31-11.34-3.26-2.42-7.15-4-10.66-5.85,9.11-7.17,29.3-8.65,39.15-2.55,7.24,4.48,10.56,11.35,11.13,19.61.93,13.67-2.47,26.51-8.36,38.64C136,180.19,117.81,201.34,91.94,215.29Z" style="fill: none"/>
        <path d="M503.41,66.85c-3.43-1.06-6.25-1.47-7.89,3.11q-5.11,14.34-11.17,28.35A78.16,78.16,0,0,1,477,110.73c-2.08,3-4.76,2.94-6.84-.13s-3.72-6.3-5.66-9.4c-1.6-2.56-1.27-4.57.44-7.2,10.61-16.34,20.9-32.89,31.45-49.27,2.82-4.37,2.54-8.56,0-12.65-1-1.68-2.92-3.49-4.69-3.82-1-.2-2.93,2.2-3.87,3.77-7.18,12-14.15,24.14-21.36,36.13-2.87,4.77-6.21,9.27-9.73,14.48-.94-2.3-1.55-3.64-2.05-5-3.06-8.46-6-17-9.15-25.39-2.67-7.26-9.22-8.43-14.22-2.47a22.05,22.05,0,0,0-4.08,6.81c-4.79,14-9.53,28.08-13.93,42.23-4.24,13.64-10,26.48-18.72,37.83-2.53,3.29-5.95,5.89-9,8.8-.52-.3-1-.6-1.57-.89a66.79,66.79,0,0,1,1.37-8.53q7.79-26.61,15.83-53.15c3.1-10.24-2.82-18.55-13.68-19.08-4.39-.22-6.78,1.6-7.75,6-3.5,15.77-7.32,31.48-10.74,47.27-3,13.85-9.39,25.9-18.4,36.68-1,1.2-2.14,2.29-3.22,3.44l-1.74-.57c.94-7.64,1.52-15.35,2.91-22.9,2.43-13.27,5.37-26.44,8.05-39.66,1.19-5.83-2.3-9.48-6.37-12.6s-8.49-4.62-12.9-1.27a179.44,179.44,0,0,0-14.7,12.59c-2.59,2.44-4.56,5.54-7,8.56-.76-1-1.23-1.69-1.73-2.34-5.91-7.73-12.44-9-20.27-3.47a67,67,0,0,0-9.68,8.61c-3.16,3.32-5.87,7.06-8.91,10.77-4.93-5.24-10.7-7.77-17.58-7.53-3,.1-4.83,1.3-5.33,4.68-2.25,15-4,30.1-7.28,44.88-4,18.09-12.71,33.92-27.41,45.83a20.24,20.24,0,0,1-7.56,3.59c-5.25,1.33-7.24-2.56-9.32-6.37s1.08-4.93,3.18-6.53a101,101,0,0,0,36.81-53.93,28.3,28.3,0,0,0,1-9.85c-.81-10.23-8.13-15.38-17.79-12a52.21,52.21,0,0,0-15.25,8.22c-21.63,17.33-32.27,40.63-34.94,67.77a45.67,45.67,0,0,0,1.39,14.83c3.63,15,14.13,20.88,29,16.7A58,58,0,0,0,238,200.25c1.29-2,2.55-4,3.46-5.37,1.77,2.66,2.82,6.18,4.73,6.73a43.47,43.47,0,0,0,13.63,1.2c1.12,0,2.91-2.87,3.07-4.54.41-4.29-.37-8.71.13-13,1.22-10.4,1.07-21.46,4.85-30.91,4.76-11.89,12.86-22.45,19.57-33.55.49-.81,1.43-1.34,2.93-2.68-.8,4.36-1.42,7.6-2,10.86-3,17.06-6.41,34.1-5,51.58.55,6.82,1.89,8.16,8.73,9.16a27.73,27.73,0,0,0,5,.24c6.09-.22,7.1-1.38,6.71-7.54-1.47-23.81,2.71-46.1,17.48-65.61,3-4,5.66-8.35,8.47-12.54a4.45,4.45,0,0,1,.62,3.31c-2,10.46-4.51,20.87-5.94,31.41a108.12,108.12,0,0,0-1,24.36c1.39,14.81,14.65,20.43,26.55,11.39,4.53-3.45,7.9-8.46,11.72-12.82a50.51,50.51,0,0,0,3.14-4.44c5,8.71,8.3,11.07,14.23,8.77,5.46-2.11,10.38-5.6,15.53-8.48,2.73,5.25,6.44,6.43,11.14,2,12.66-12,24.92-24.46,37.31-36.76,1.33-1.32,2.5-2.81,3.85-4.34,2.68,3.72,4.72,7,7.2,9.88,8.87,10.32,17.63,11,26.49.71a82,82,0,0,0,12.55-20.78c4.92-11.27,8.56-23.11,12.93-34.63C507.37,70.45,507.28,68,503.41,66.85ZM228.35,132c.2,2.72.61,4.29.39,5.76-2.07,13.48-16.11,34.81-29.3,43.7C204.29,161.77,210.14,144.09,228.35,132Zm210.82-25.34c-12,14.12-24.16,28.14-37.07,41.59a276.56,276.56,0,0,0,28.28-64.81l1.21.23c2.62,6.46,5.31,12.89,7.8,19.39A4.33,4.33,0,0,1,439.17,106.65Z" style="fill: none"/>
        <path d="M297.12,205a55.45,55.45,0,0,0-11.64,9.31C272.22,228,263.75,244.52,258,262.47c-2.12,6.61-3.37,13.5-4.24,17.07-.16,14.78,4.37,18.64,14.66,14.23a45.56,45.56,0,0,0,16.2-11.85c14.11-16.41,21.55-36.17,26.06-57.1a46.5,46.5,0,0,0,1.11-11.39C311.46,204.29,304.93,200.46,297.12,205Zm-25.05,74.45C268.73,269,282.88,233,293.85,224,290.75,244.6,284.72,262.92,272.07,279.47Z" style="fill: none"/>
        <path d="M265.86,327.76c.35-6-2.8-9.28-8.75-10-8.31-1-15.05,2.52-19.46,8.93-4.86,7.05-9.58,14.65-12.2,22.72q-18.28,56.3-35.19,113c-4.11,13.82-6.5,28.15-9.68,42.24l1.31.29c0,1.33-.08,2.67,0,4,.51,6.93,2.63,9,9.53,9.53,10.82.8,22.61-8.15,25.4-19.4,13.36-54,28.76-107.46,46.77-160.13A42.52,42.52,0,0,0,265.86,327.76Z" style="fill: none"/>
        <path d="M208.81,304.32c-.77,1.4-.78,4.64,0,5.17,1.5,1,4.47,1.4,5.81.51,3.65-2.41,7.7-5,10-8.61,13.78-21.82,27.07-43.94,40.61-65.92,4.1-6.66,8.6-13.08,12.55-19.83a6.72,6.72,0,0,0,.07-5.79c-.58-1-4-1.42-5.19-.65-3.84,2.43-8,5-10.68,8.5-6.9,9-13.09,18.47-19.58,27.75-.67,1-1.52,1.79-3.21,3.77.59-4.07,1.13-6.66,1.32-9.28a74.81,74.81,0,0,0,.33-12.42c-.14-1.52-2.34-4-3.74-4-4.93-.33-13,6.22-13.42,11-.8,9.27-1.36,18.59-1.27,27.89,0,3.15,2.34,6.28,3.6,9.42l1.48.11c-.5.85-1,1.7-1.5,2.55C220.22,284.4,214.37,294.28,208.81,304.32Z" style="fill: none"/>
        <path d="M394.34,224c1.84-1.43,3.66-2.89,5.4-4.43,8.89-7.87,15.11-17.27,16.47-29.33a14.71,14.71,0,0,0-13.59-16.52c-12.32-.75-24.4,6.9-28.64,18.45-2.06,5.61-3.59,11.42-5.4,17.13q-8.43,26.65-16.89,53.29c-1.49,4.74-.15,6.35,4.69,5.6,5.62-.87,10-3.62,12.39-8.94,1.62-3.59,3-7.3,4.57-11.29l3.1,2.94c7.28,6.91,12.4,7.05,19.93.55,6.63-5.73,6.49-9.14-.6-14.28-.54-.39-1.08-.78-1.59-1.22C388.78,231.3,388.84,228.28,394.34,224Zm-13-7c3.24-9.56,6.2-18.26,9.25-27.24,5.13,1.72,7.33,4.88,7.15,9.47C397.46,207.19,390.74,214.73,381.38,217Z" style="fill: none"/>
        <path d="M332.05,228c4.21-10.87,8.79-21.59,13-32.46.71-1.81,1.15-4.94.18-5.87-1.14-1.1-4.07-1-6-.52a15.33,15.33,0,0,0-10.91,9.52c-7.42,19.25-14.7,38.57-21.65,58a41.78,41.78,0,0,0-2,13.73c0,6.9,4.65,9.94,11.11,7.63,4-1.43,7.8-3.37,11.79-5.13.05,4.15,2.43,5.21,6,4.46,5.79-1.21,9.83-4.26,11.64-10.27,7.25-24.07,14.71-48.08,22-72.15.52-1.71.78-4.78-.08-5.36a8.78,8.78,0,0,0-6.39-1.12c-5.4,1.4-8.35,5.48-10.4,10.58q-9.79,24.32-20,48.44c-1.36,3.22-3.72,6-5.61,9l-1.74-.71a26.11,26.11,0,0,1,.75-4.27C326.36,243.64,329,235.75,332.05,228Z" style="fill: none"/>
        <path d="M171.2,315c-8.73-1.34-24.84,8.55-27.79,17-17.75,50.62-32.49,102.15-45.95,154a84.4,84.4,0,0,0-2.7,20.67c0,10.82,6,16.45,16.83,15.63,12.83-1,25.34-3.75,37-9.51,7.27-3.58,12.12-9,14.07-17.08,1.85-7.75-3.78-14.39-11.62-12.86-6.34,1.24-12.61,2.85-19.67,4.47.41-1.82.58-3,.91-4,15.8-51,27.76-103.23,47.06-153.18C181.82,323.77,177.43,316,171.2,315Z" style="fill: none"/>
        <path d="M404.27,59.74c2-8,3.87-15.93,6-23.76,3.58-13.37,2.44-16.18-9.74-22.74a28.26,28.26,0,0,0-4.07-1.88c-5.3-1.85-7.83,0-8.08,5.69-.34,7.81-.74,15.62-1.11,23.43C386.7,52.13,391.85,58.13,404.27,59.74Z" style="fill: none"/>
        <path d="M326.73,358.7c-5.36.94-10.63,2.34-17.08,3.8,3.71-12.48,7.07-23.81,10.44-35.13,1.4-4.72,4.14-7.64,9.43-8.19,7.29-.76,14.51-2.13,21.77-3.11,10.37-1.39,17.73-7.29,23-15.86,2.7-4.43,4.57-9.72,1.41-14.67S367,281.09,362,281.88c-9.87,1.57-19.65,3.66-29.51,5.29-21.13,3.51-35.94,14.93-44.06,34.83a114.13,114.13,0,0,0-4.6,12.14C271.3,379.05,258.72,424,246.46,469a124.25,124.25,0,0,0-3.5,22.66c-.57,7,2.67,9.49,9.44,8.27C266.79,497.3,276,489,279.72,474.81c6.44-24.83,12.9-49.66,19.16-74.53.87-3.44,2.51-4.74,5.89-5.5,6.8-1.53,13.8-3,20.07-5.87A41.32,41.32,0,0,0,339,378.3c3.68-4.43,6.94-10.57,3.26-16.55S332.24,357.72,326.73,358.7Z" style="fill: none"/>
        <path d="M389.5,306a536.71,536.71,0,0,0-41.12,117.7c-2.79,12.54-4.77,25.31-1.48,38.13,2.55,9.95,8.51,14.66,18.66,14.75,19.77.18,37.95-6.45,56-13.58,8.69-3.44,14-10.33,17.9-18.62,2.05-4.34.94-7.93-2.69-9.86-3.09-1.63-7.35-2.82-10.6-2.07-11,2.54-21.82,6.1-32.73,9.14-6.08,1.69-10.39-.74-10.58-6.9-.17-5.72,1.11-11.5,2-17.22.13-.83,1.76-1.68,2.86-2.05,14.49-4.9,29.12-9.4,43.48-14.65,11-4,16.32-12.71,17.18-24.2.34-4.44,1.43-9.48-3-12.42s-8.68.07-12.67,2c-8.55,4.12-16.93,8.58-25.52,12.6-4,1.86-8.3,3-13.06,4.74a16.88,16.88,0,0,1,.31-2.74c7.58-21.35,15.27-42.66,22.72-64.06,2.49-7.15,7.4-10.65,14.59-11.84,6.9-1.15,13.77-2.53,20.62-3.94,7.77-1.59,14.65-4.88,19-11.82,3.12-5,7.26-10.38,3.92-16.54-3.67-6.76-10.88-6.51-17-5.1-12.76,2.95-25.66,6-37.79,10.81C407.13,283.54,395.94,292.67,389.5,306Z" style="fill: none"/>
        <path d="M531.75,63c.88-12.68-.41-24.61-10.21-34.14-4.44-4.32-9.77-6.11-15.68-6.82-1.29-.15-3.12,0-3.74-.8-4.13-5.14-10.05-4.23-14.8-3.09-3.57.86-7,4.76-9.25,8.12-3.9,5.74-6.87,12.1-10,17.69-5.89-1.4-11.28-2.28-16.36-4.07-2.41-.85-5.43-3.07-6.1-5.3-5-16.64-17.92-24-33-29.09-2.82-1-5.5-2.47-8.38-3.06A106.33,106.33,0,0,0,387.81,0c-3.83-.17-9.26,7.06-9.56,11.52q-1.46,21.12-2.92,42.22c-.05.82.09,2-.38,2.4-5.83,4.61-5.32,11.86-7.5,18.54-4-1.14-8-1.66-11.49-3.36-10.76-5.27-21.31-5.37-30.08,2.92-6.51,6.15-12.2,10.32-21.94,7.9-11.43-2.84-19.09,4.88-26,12.52-3,3.28-5.53,4.3-10.18,3.19a45.72,45.72,0,0,0-16.38-.39c-5.38.71-8.26,5-9.62,10.34H212.18a14.18,14.18,0,0,1-.93-2.24c-6-18.67-18.54-29.91-37-36.78-17.26-6.42-34.23-8.69-51.75-4-19.15,5.09-37,13.4-52.42,26.09C35.41,119.35,12.4,155.1,3.53,199.39,2,207.2,1.16,215.15,0,223v27c2.75,4.85,4.85,10.26,8.4,14.44,8,9.43,18.79,13.34,31.11,13.17,1.77,0,3.56.14,5.9.25,0,6.85-.06,13.3,0,19.75.09,8.46,3,15.75,9.88,20.91C67,327.4,79.85,332.76,94.85,328.74c8.55-2.3,14.15-10.06,14.33-18.94.09-4.76,0-9.53,0-15.18,6.39,4.24,11.42,8,16.87,11.08s11.42,5.36,17.29,8.07c0-.08.11.4,0,.51-6.87,4.64-9.75,11.61-12.38,19.19C114,382.29,99.67,431.89,87.31,482c-3.73,15.13-4.15,31.31-4.31,47-.16,15.38,9.72,26.63,24.26,31.25A43.76,43.76,0,0,1,113,563h17c2.63-.9,5.25-1.85,7.89-2.7,11.68-3.77,23.42-7.38,35-11.38,2.45-.84,3.59-.33,5.64.94,4.69,2.91,9.62,6.37,14.86,7.29,19.07,3.34,35.73-1.45,48-17.39,2-2.57,3.53-2.56,6.57-1.73,17.74,4.78,33.54.15,47.62-11.08a45.28,45.28,0,0,0,15.74-24.37c5.8-21.89,11.61-43.79,17.13-65.76,1-4.18,2.93-6,7.66-5.79-.57,5.48-1.25,10.89-1.67,16.33-1.06,13.78-2.46,27.59,1.89,41.13,5.7,17.75,18.59,26.89,37.24,27.54,26.24.92,50.65-6.41,73.6-17.68C464.32,490,474,474.8,474.07,454.86c.05-7.43-2.78-13.06-11.55-22.69,1.24-.66,2.8-1.1,3.84-2.1,16-15.4,18.39-34.43,13.61-54.82-2.51-10.72-11.62-17.16-22.61-18.07a13.21,13.21,0,0,1-4.52-1.52c-2.16-1.07-4.2-2.37-6.48-3.68,1-7.12,1.7-7.74,9.1-9.27,7.17-1.48,14.42-2.78,21.39-4.94a47.28,47.28,0,0,0,32.95-50.08c-1.09-9.78-5.82-18.26-15.09-22.11-12.44-5.16-25-10.88-39.23-8.61-6.7,1.07-13.4,2.2-20.05,3.29-.77-3.71-1.68-7.39-2.19-11.12-.15-1,.67-2.46,1.44-3.39,10.77-13,16.08-27.93,14.94-44.82A41.51,41.51,0,0,0,446.15,188c-1.28-3-1-4.94,1.54-6.76a5.86,5.86,0,0,0,1.41-1.4c4.92-7,10.16-8.21,19-5.33,13.66,4.44,26.86.6,37.93-9.29,9.36-8.37,14.95-19.07,19.39-30.48,5-12.85,9.72-25.81,14.57-38.72V78c-2.44-3.52-5-7-7.25-10.61A7.8,7.8,0,0,1,531.75,63ZM387.24,40.48c.37-7.81.77-15.62,1.11-23.43.25-5.69,2.78-7.54,8.08-5.69a28.26,28.26,0,0,1,4.07,1.88c12.18,6.56,13.32,9.37,9.74,22.74-2.1,7.83-4,15.72-6,23.76C391.85,58.13,386.7,52.13,387.24,40.48ZM179.36,330.14c-19.3,49.95-31.26,102.16-47.06,153.18-.33,1.08-.5,2.21-.91,4,7.06-1.62,13.33-3.23,19.67-4.47,7.84-1.53,13.47,5.11,11.62,12.86-2,8.13-6.8,13.5-14.07,17.08-11.68,5.76-24.19,8.54-37,9.51-10.78.82-16.87-4.81-16.83-15.63A84.4,84.4,0,0,1,97.46,486c13.46-51.9,28.2-103.43,46-154,3-8.41,19.06-18.3,27.79-17C177.43,316,181.82,323.77,179.36,330.14Zm.79-78c-.36,4.63-.88,9.26-1.55,13.86-.94,6.41-4.58,9.58-11.2,10.65-17.26,2.79-32.83-1.51-45.94-12.23-10.62-8.69-19.59-19.38-29.43-29a9.56,9.56,0,0,0-5.48-2.85c-3.45-.19-4.52,2.46-4.88,5.63-1.86,16.36-3.85,32.71-5.79,49.06-.12,1-.27,1.91-.4,2.83-11.28-.14-18.72-6.92-18.24-17.53.54-11.63,2-23.22,3.12-34.82.13-1.29.3-2.58.43-3.81C39,225.52,35.94,209.25,49.17,201.74c3.73,6.3,7.17,13,14.46,17.19a1014.44,1014.44,0,0,1,31.74-114c-3.66,3.56-7.62,6.86-11,10.71A219.09,219.09,0,0,0,34.81,216.78c-1.07,5.28-.75,10.93-.49,16.38.14,3.15-.52,4.7-3.75,5.07C20.06,239.4,10.19,230,11.46,219.52c6.05-50.28,28.61-91.55,69-122.29,16.83-12.82,36.17-21.5,57.42-24.29,23.53-3.08,40.14,10.37,43.22,33.93,2.53,19.42-3.09,37-12.54,53.53-15.15,26.48-36.47,46.95-62.45,62.72l-4,2.4c10.42,10.34,21.53,19,35.06,24.21,14.15,5.47,28,5.41,42.08-2.8C179.65,249.09,180.26,250.64,180.15,252.13Zm36.69,247c-2.79,11.25-14.58,20.2-25.4,19.4-6.9-.5-9-2.6-9.53-9.53-.1-1.32,0-2.66,0-4l-1.31-.29c3.18-14.09,5.57-28.42,9.68-42.24q16.91-56.73,35.19-113c2.62-8.07,7.34-15.67,12.2-22.72,4.41-6.41,11.15-9.94,19.46-8.93,5.95.73,9.1,4,8.75,10a42.52,42.52,0,0,1-2.25,11.2C245.6,391.63,230.2,445.06,216.84,499.09ZM226,271.8c-1.26-3.14-3.57-6.27-3.6-9.42-.09-9.3.47-18.62,1.27-27.89.41-4.79,8.49-11.34,13.42-11,1.4.09,3.6,2.52,3.74,4a74.81,74.81,0,0,1-.33,12.42c-.19,2.62-.73,5.21-1.32,9.28,1.69-2,2.54-2.82,3.21-3.77,6.49-9.28,12.68-18.79,19.58-27.75,2.71-3.51,6.84-6.07,10.68-8.5,1.22-.77,4.61-.32,5.19.65a6.72,6.72,0,0,1-.07,5.79c-3.95,6.75-8.45,13.17-12.55,19.83-13.54,22-26.83,44.1-40.61,65.92-2.25,3.57-6.3,6.2-10,8.61-1.34.89-4.31.46-5.81-.51-.82-.53-.81-3.77,0-5.17,5.56-10,11.41-19.92,17.17-29.86.49-.85,1-1.7,1.5-2.55Zm98.62-15.32c1.89-3,4.25-5.78,5.61-9q10.26-24.12,20-48.44c2.05-5.1,5-9.18,10.4-10.58a8.78,8.78,0,0,1,6.39,1.12c.86.58.6,3.65.08,5.36-7.27,24.07-14.73,48.08-22,72.15-1.81,6-5.85,9.06-11.64,10.27-3.55.75-5.93-.31-6-4.46-4,1.76-7.8,3.7-11.79,5.13-6.46,2.31-11.12-.73-11.11-7.63a41.78,41.78,0,0,1,2-13.73c6.95-19.43,14.23-38.75,21.65-58a15.33,15.33,0,0,1,10.91-9.52c1.93-.48,4.86-.58,6,.52,1,.93.53,4.06-.18,5.87-4.2,10.87-8.78,21.59-13,32.46-3,7.75-5.69,15.64-8.42,23.5a26.11,26.11,0,0,0-.75,4.27ZM394.18,236c.51.44,1.05.83,1.59,1.22,7.09,5.14,7.23,8.55.6,14.28-7.53,6.5-12.65,6.36-19.93-.55l-3.1-2.94c-1.6,4-2.95,7.7-4.57,11.29-2.39,5.32-6.77,8.07-12.39,8.94-4.84.75-6.18-.86-4.69-5.6q8.43-26.66,16.89-53.29c1.81-5.71,3.34-11.52,5.4-17.13,4.24-11.55,16.32-19.2,28.64-18.45a14.71,14.71,0,0,1,13.59,16.52c-1.36,12.06-7.58,21.46-16.47,29.33-1.74,1.54-3.56,3-5.4,4.43C388.84,228.28,388.78,231.3,394.18,236Zm-83.5-11.16c-4.51,20.93-11.95,40.69-26.06,57.1a45.56,45.56,0,0,1-16.2,11.85c-10.29,4.41-14.82.55-14.66-14.23.87-3.57,2.12-10.46,4.24-17.07,5.75-18,14.22-34.49,27.48-48.14A55.45,55.45,0,0,1,297.12,205c7.81-4.56,14.34-.73,14.67,8.41A46.5,46.5,0,0,1,310.68,224.82ZM339,378.3a41.32,41.32,0,0,1-14.13,10.61c-6.27,2.9-13.27,4.34-20.07,5.87-3.38.76-5,2.06-5.89,5.5-6.26,24.87-12.72,49.7-19.16,74.53C276,489,266.79,497.3,252.4,499.88c-6.77,1.22-10-1.24-9.44-8.27a124.25,124.25,0,0,1,3.5-22.66c12.26-45,24.84-89.9,37.41-134.81a114.13,114.13,0,0,1,4.6-12.14c8.12-19.9,22.93-31.32,44.06-34.83,9.86-1.63,19.64-3.72,29.51-5.29,4.95-.79,10.42-1.36,13.63,3.66s1.29,10.24-1.41,14.67c-5.24,8.57-12.6,14.47-23,15.86-7.26,1-14.48,2.35-21.77,3.11-5.29.55-8,3.47-9.43,8.19-3.37,11.32-6.73,22.65-10.44,35.13,6.45-1.46,11.72-2.86,17.08-3.8s11.82-2.93,15.5,3.05S342.65,373.87,339,378.3ZM458.32,267.43c6.08-1.41,13.29-1.66,17,5.1,3.34,6.16-.8,11.54-3.92,16.54-4.33,6.94-11.21,10.23-19,11.82-6.85,1.41-13.72,2.79-20.62,3.94-7.19,1.19-12.1,4.69-14.59,11.84-7.45,21.4-15.14,42.71-22.72,64.06a16.88,16.88,0,0,0-.31,2.74c4.76-1.7,9.07-2.88,13.06-4.74,8.59-4,17-8.48,25.52-12.6,4-1.91,8.24-4.92,12.67-2s3.33,8,3,12.42c-.86,11.49-6.21,20.19-17.18,24.2-14.36,5.25-29,9.75-43.48,14.65-1.1.37-2.73,1.22-2.86,2.05-.93,5.72-2.21,11.5-2,17.22.19,6.16,4.5,8.59,10.58,6.9,10.91-3,21.7-6.6,32.73-9.14,3.25-.75,7.51.44,10.6,2.07,3.63,1.93,4.74,5.52,2.69,9.86-3.9,8.29-9.21,15.18-17.9,18.62-18,7.13-36.19,13.76-56,13.58-10.15-.09-16.11-4.8-18.66-14.75-3.29-12.82-1.31-25.59,1.48-38.13A536.71,536.71,0,0,1,389.5,306c6.44-13.33,17.63-22.46,31-27.76C432.66,273.44,445.56,270.38,458.32,267.43ZM506.07,73.86c-4.37,11.52-8,23.36-12.93,34.63a82,82,0,0,1-12.55,20.78c-8.86,10.25-17.62,9.61-26.49-.71-2.48-2.89-4.52-6.16-7.2-9.88-1.35,1.53-2.52,3-3.85,4.34-12.39,12.3-24.65,24.74-37.31,36.76-4.7,4.46-8.41,3.28-11.14-2-5.15,2.88-10.07,6.37-15.53,8.48-5.93,2.3-9.19-.06-14.23-8.77A50.51,50.51,0,0,1,361.7,162c-3.82,4.36-7.19,9.37-11.72,12.82-11.9,9-25.16,3.42-26.55-11.39a108.12,108.12,0,0,1,1-24.36c1.43-10.54,3.92-21,5.94-31.41a4.45,4.45,0,0,0-.62-3.31c-2.81,4.19-5.43,8.52-8.47,12.54-14.77,19.51-18.95,41.8-17.48,65.61.39,6.16-.62,7.32-6.71,7.54a27.73,27.73,0,0,1-5-.24c-6.84-1-8.18-2.34-8.73-9.16-1.4-17.48,2-34.52,5-51.58.58-3.26,1.2-6.5,2-10.86-1.5,1.34-2.44,1.87-2.93,2.68-6.71,11.1-14.81,21.66-19.57,33.55-3.78,9.45-3.63,20.51-4.85,30.91-.5,4.26.28,8.68-.13,13-.16,1.67-1.95,4.5-3.07,4.54a43.47,43.47,0,0,1-13.63-1.2c-1.91-.55-3-4.07-4.73-6.73-.91,1.41-2.17,3.39-3.46,5.37a58,58,0,0,1-33.87,24.87c-14.92,4.18-25.42-1.73-29-16.7a45.67,45.67,0,0,1-1.39-14.83c2.67-27.14,13.31-50.44,34.94-67.77a52.21,52.21,0,0,1,15.25-8.22c9.66-3.37,17,1.78,17.79,12a28.3,28.3,0,0,1-1,9.85,101,101,0,0,1-36.81,53.93c-2.1,1.6-5.34,2.6-3.18,6.53s4.07,7.7,9.32,6.37a20.24,20.24,0,0,0,7.56-3.59c14.7-11.91,23.4-27.74,27.41-45.83,3.28-14.78,5-29.89,7.28-44.88.5-3.38,2.33-4.58,5.33-4.68,6.88-.24,12.65,2.29,17.58,7.53,3-3.71,5.75-7.45,8.91-10.77a67,67,0,0,1,9.68-8.61c7.83-5.53,14.36-4.26,20.27,3.47.5.65,1,1.31,1.73,2.34,2.42-3,4.39-6.12,7-8.56a179.44,179.44,0,0,1,14.7-12.59c4.41-3.35,8.95-1.74,12.9,1.27s7.56,6.77,6.37,12.6c-2.68,13.22-5.62,26.39-8.05,39.66-1.39,7.55-2,15.26-2.91,22.9l1.74.57c1.08-1.15,2.21-2.24,3.22-3.44,9-10.78,15.4-22.83,18.4-36.68,3.42-15.79,7.24-31.5,10.74-47.27,1-4.35,3.36-6.17,7.75-6,10.86.53,16.78,8.84,13.68,19.08q-8,26.53-15.83,53.15a66.79,66.79,0,0,0-1.37,8.53c.53.29,1.05.59,1.57.89,3-2.91,6.43-5.51,9-8.8,8.7-11.35,14.48-24.19,18.72-37.83,4.4-14.15,9.14-28.2,13.93-42.23a22.05,22.05,0,0,1,4.08-6.81c5-6,11.55-4.79,14.22,2.47,3.11,8.44,6.09,16.93,9.15,25.39.5,1.38,1.11,2.72,2.05,5,3.52-5.21,6.86-9.71,9.73-14.48,7.21-12,14.18-24.13,21.36-36.13.94-1.57,2.84-4,3.87-3.77,1.77.33,3.66,2.14,4.69,3.82,2.52,4.09,2.8,8.28,0,12.65C485.81,61.11,475.52,77.66,464.91,94c-1.71,2.63-2,4.64-.44,7.2,1.94,3.1,3.61,6.37,5.66,9.4s4.76,3.18,6.84.13a78.16,78.16,0,0,0,7.38-12.42q6.06-14,11.17-28.35c1.64-4.58,4.46-4.17,7.89-3.11C507.28,68,507.37,70.45,506.07,73.86Z"/>
        <path d="M431.59,83.66l-1.21-.23a276.56,276.56,0,0,1-28.28,64.81c12.91-13.45,25-27.47,37.07-41.59a4.33,4.33,0,0,0,.22-3.6C436.9,96.55,434.21,90.12,431.59,83.66Z"/>
        <path d="M228.74,137.75c.22-1.47-.19-3-.39-5.76-18.21,12.1-24.06,29.78-28.91,49.46C212.63,172.56,226.67,151.23,228.74,137.75Z"/>
        <path d="M148.69,154.06c5.89-12.13,9.29-25,8.36-38.64-.57-8.26-3.89-15.13-11.13-19.61-9.85-6.1-30-4.62-39.15,2.55,3.51,1.88,7.4,3.43,10.66,5.85,3.67,2.73,5.29,6.27,3.31,11.34-8.61,22.17-17.21,44.36-25.12,66.78-4,11.2-6.41,22.92-9.92,35.78,3-1.37,4.69-2,6.24-2.82C117.81,201.34,136,180.19,148.69,154.06Z"/>
        <path d="M390.63,189.79c-3.05,9-6,17.68-9.25,27.24,9.36-2.3,16.08-9.84,16.4-17.77C398,194.67,395.76,191.51,390.63,189.79Z"/>
        <path d="M272.07,279.47c12.65-16.55,18.68-34.87,21.78-55.49C282.88,233,268.73,269,272.07,279.47Z"/>
      </g>
    </g>
  </g>
</svg>
